<svg xmlns="http://www.w3.org/2000/svg" width="24" height="24" viewBox="0 0 24 24" fill="none" stroke-width="1.8" stroke-linecap="round" stroke-linejoin="round" role="img" aria-label="assesment_experts">
  <title>Assessment Experts</title>
  <!-- Squircle outline -->
  <rect x="1.5" y="1.5" width="21" height="21" rx="5.5" ry="5.5" fill="#ECEFF1" fill-opacity="0.2" stroke="#B0BEC5" stroke-width="1.2"/>
  <!-- Document background -->
  <path stroke="#43A047" d="M14 3H8a2 2 0 0 0-2 2v14a2 2 0 0 0 2 2h8a2 2 0 0 0 2-2V9z"/>
  <path stroke="#43A047" d="M14 3v6h6"/>
  <!-- People + check (scaled inside document; expert color) -->
  <g stroke="#3949AB" transform="scale(0.62) translate(4.72,4.83)">
    <path d="M9 14a4 4 0 0 0-4 4v1"/>
    <circle cx="9" cy="9" r="3"/>
    <path d="M15 14a4 4 0 0 1 4 4v1"/>
    <circle cx="15" cy="10" r="3"/>
    <path d="M20.5 6.5l-3 3-1.5-1.5"/>
  </g>
</svg>
