<svg xmlns="http://www.w3.org/2000/svg" width="24" height="24" viewBox="0 0 24 24" fill="none" stroke-width="1.8" stroke-linecap="round" stroke-linejoin="round" role="img" aria-label="assesment_tsu">
  <title>Assessment TSU</title>
  <!-- Squircle outline -->
  <rect x="1.5" y="1.5" width="21" height="21" rx="5.5" ry="5.5" fill="#ECEFF1" fill-opacity="0.2" stroke="#B0BEC5" stroke-width="1.2"/>
  <!-- Document background -->
  <path stroke="#43A047" d="M14 3H8a2 2 0 0 0-2 2v14a2 2 0 0 0 2 2h8a2 2 0 0 0 2-2V9z"/>
  <path stroke="#43A047" d="M14 3v6h6"/>
  <!-- TSU toolbox overlay (scaled inside document) -->
  <g stroke="#8E24AA" transform="scale(0.65) translate(4.615,4.385)">
    <rect x="5" y="11" width="14" height="9" rx="2"/>
    <path d="M8 11v-2a2 2 0 0 1 2-2h4a2 2 0 0 1 2 2v2"/>
    <path d="M5 14h14"/>
    <rect x="11" y="13" width="2" height="2" rx="0.5"/>
    <path d="M14.6 15.4a1.8 1.8 0 1 0-2.6 2.6l2.8 2.8 1.3-1.3-2.8-2.8"/>
  </g>
</svg>
